<svg width="279" height="315" viewBox="0 0 279 315" fill="none" xmlns="http://www.w3.org/2000/svg">
<path d="M278.986 92.7116C278.984 87.4391 277.856 82.78 275.576 78.7825C273.336 74.8493 269.981 71.5537 265.481 68.948C228.339 47.5314 191.16 26.1803 154.03 4.74184C144.019 -1.03723 134.314 -0.825455 124.378 5.03658C109.594 13.7543 35.5761 56.1607 13.5198 68.936C4.43637 74.1955 0.0163744 82.2429 0.0141911 92.7018C0 135.772 0.0141911 178.842 0 221.912C0 227.069 1.0818 231.638 3.26178 235.576C5.50289 239.627 8.90439 243.013 13.5078 245.678C35.5652 258.453 109.593 300.856 124.373 309.577C134.314 315.443 144.019 315.652 154.033 309.872C191.164 288.433 228.345 267.081 265.493 245.665C270.097 243.001 273.498 239.613 275.739 235.565C277.916 231.626 279 227.058 279 221.9C279 221.9 279 135.783 278.986 92.7116Z" fill="#A179DC"/>
<path d="M139.927 156.887L3.2619 235.576C5.50301 239.627 8.90452 243.013 13.5079 245.678C35.5653 258.453 109.593 300.856 124.373 309.577C134.314 315.443 144.019 315.652 154.033 309.872C191.165 288.433 228.345 267.082 265.493 245.665C270.097 243.001 273.498 239.613 275.739 235.565L139.927 156.887Z" fill="#A179DC"/>
<path d="M278.986 92.7117C278.984 87.4392 277.856 82.7801 275.576 78.7826L139.927 156.888L275.739 235.565C277.916 231.627 278.998 227.058 279 221.9C279 221.9 279 135.783 278.986 92.7117Z" fill="#A179DC"/>
<path d="M220.391 127.471V142.18H235.099V127.471H242.454V142.18H257.162V149.534H242.454V164.242H257.162V171.596H242.454V186.304H235.099V171.596H220.391V186.304H213.037V171.596H198.329V164.242H213.037V149.534H198.329V142.18H213.037V127.471H220.391ZM235.099 149.533H220.391V164.242H235.099V149.533Z" fill="white"/>
<path d="M140.227 53.6031C178.591 53.6031 212.085 74.4379 230.026 105.407L229.852 105.109L184.713 131.099C175.82 116.042 159.518 105.88 140.815 105.67L140.226 105.667C111.707 105.667 88.5864 128.788 88.5864 157.306C88.5771 166.295 90.9254 175.129 95.3971 182.927C104.298 198.466 121.032 208.947 140.227 208.947C159.541 208.947 176.37 198.333 185.225 182.628L185.01 183.004L230.08 209.114C212.335 239.821 179.299 260.592 141.382 261.005L140.227 261.012C101.742 261.012 68.1523 240.048 50.2562 208.915C41.5199 193.717 36.5213 176.097 36.5213 157.306C36.5213 100.033 82.9504 53.602 140.226 53.602L140.227 53.6031Z" fill="white"/>
</svg>
