<svg width="323" height="314" viewBox="0 0 323 314" fill="none" xmlns="http://www.w3.org/2000/svg">
<path d="M57.3634 0H265.355C296.889 0 322.385 25.4957 322.385 57.0299V256.97C322.385 288.504 296.889 314 265.355 314H57.3634C25.8292 314 0.333496 288.504 0.333496 256.97V57.0299C0.333496 25.4957 25.8292 0 57.3634 0Z" fill="#330000"/>
<path d="M155.992 187.863H106.074L95.8755 219.397C95.6071 220.605 94.5336 221.41 93.3259 221.276H68.0985C66.6225 221.276 66.2199 220.471 66.6225 218.861L109.831 94.4684C110.234 93.1265 110.636 91.6505 111.173 90.0402C111.71 87.2223 111.978 84.2701 111.978 81.318C111.844 80.647 112.381 79.9761 113.052 79.8419H147.806C148.88 79.8419 149.416 80.2445 149.551 80.9154L198.529 219.129C198.932 220.605 198.529 221.276 197.187 221.276H169.142C168.203 221.41 167.263 220.739 166.995 219.8L155.992 187.863ZM113.857 160.623H147.94C147.135 157.805 146.062 154.45 144.854 150.962C143.646 147.338 142.439 143.447 141.231 139.421C139.889 135.262 138.681 131.236 137.34 127.076C135.998 122.916 134.79 119.025 133.716 115.133C132.643 111.376 131.704 107.887 130.764 104.667H130.496C129.288 110.437 127.812 116.207 125.934 121.977C123.921 128.418 121.908 135.127 119.761 141.837C117.882 148.68 115.869 154.987 113.857 160.623ZM228.453 103.325C224.025 103.459 219.731 101.715 216.511 98.6282C213.424 95.2735 211.814 90.8453 211.948 86.2829C211.814 81.7205 213.558 77.4265 216.779 74.3402C219.999 71.2539 224.293 69.6436 228.722 69.6436C233.955 69.6436 237.981 71.2539 240.933 74.3402C243.885 77.5607 245.495 81.8547 245.361 86.2829C245.495 90.8453 243.885 95.2735 240.664 98.6282C237.578 101.849 233.016 103.593 228.453 103.325ZM213.424 219.8V116.475C213.424 115.133 213.961 114.597 215.169 114.597H241.738C242.946 114.597 243.482 115.268 243.482 116.475V219.8C243.482 221.276 242.946 221.947 241.738 221.947H215.437C214.095 221.947 213.424 221.142 213.424 219.8Z" fill="#FF9A00"/>
</svg>
